0
SECTION
2
HEADER
9
$INSUNITS
70
4
0
ENDSEC
0
SECTION
2
TABLES
0
TABLE
2
LTYPE
0
LTYPE
72
65
70
64
2
CONTINUOUS
3
______
73
0
40
0
0
ENDTAB
0
TABLE
2
LAYER
0
ENDTAB
0
ENDSEC
0
SECTION
2
ENTITIES
0
LINE
8
0
10
-6.363961
20
11.0227038
11
11.0227038
21
6.363961
0
LINE
8
0
10
11.0227038
20
6.363961
11
6.363961
21
-11.0227038
0
LINE
8
0
10
6.363961
20
-11.0227038
11
-11.0227038
21
-6.363961
0
LINE
8
0
10
-11.0227038
20
-6.363961
11
-6.363961
21
11.0227038
0
LINE
8
0
10
-1.4463991
20
29.3752945
11
15.9402657
21
24.7165517
0
LINE
8
0
10
15.9402657
20
24.7165517
11
11.2815229
21
7.3298869
0
LINE
8
0
10
11.2815229
20
7.3298869
11
-6.1051419
21
11.9886297
0
LINE
8
0
10
-6.1051419
20
11.9886297
11
-1.4463991
21
29.3752945
0
LINE
8
0
10
3.4711628
20
47.7278853
11
20.8578276
21
43.0691425
0
LINE
8
0
10
20.8578276
20
43.0691425
11
16.1990848
21
25.6824777
0
LINE
8
0
10
16.1990848
20
25.6824777
11
-1.18758
21
30.3412205
0
LINE
8
0
10
-1.18758
20
30.3412205
11
3.4711628
21
47.7278853
0
LINE
8
0
10
17.3453893
20
16.7121189
11
34.2598565
21
10.5557563
0
LINE
8
0
10
34.2598565
20
10.5557563
11
28.1034939
21
-6.3587109
0
LINE
8
0
10
28.1034939
20
-6.3587109
11
11.1890267
21
-0.2023483
0
LINE
8
0
10
11.1890267
20
-0.2023483
11
17.3453893
21
16.7121189
0
LINE
8
0
10
23.8437721
20
34.5662787
11
40.7582393
21
28.4099161
0
LINE
8
0
10
40.7582393
20
28.4099161
11
34.6018767
21
11.4954489
0
LINE
8
0
10
34.6018767
20
11.4954489
11
17.6874095
21
17.6518115
0
LINE
8
0
10
17.6874095
20
17.6518115
11
23.8437721
21
34.5662787
0
LINE
8
0
10
30.3421548
20
52.4204384
11
47.256622
21
46.2640758
0
LINE
8
0
10
47.256622
20
46.2640758
11
41.1002594
21
29.3496086
0
LINE
8
0
10
41.1002594
20
29.3496086
11
24.1857922
21
35.5059712
0
LINE
8
0
10
24.1857922
20
35.5059712
11
30.3421548
21
52.4204384
0
LINE
8
0
10
36.9096499
20
14.9121992
11
53.8241171
21
8.7558366
0
LINE
8
0
10
53.8241171
20
8.7558366
11
47.6677545
21
-8.1586306
0
LINE
8
0
10
47.6677545
20
-8.1586306
11
30.7532873
21
-2.002268
0
LINE
8
0
10
30.7532873
20
-2.002268
11
36.9096499
21
14.9121992
0
LINE
8
0
10
43.4080326
20
32.766359
11
60.3224998
21
26.6099964
0
LINE
8
0
10
60.3224998
20
26.6099964
11
54.1661372
21
9.6955292
0
LINE
8
0
10
54.1661372
20
9.6955292
11
37.25167
21
15.8518918
0
LINE
8
0
10
37.25167
20
15.8518918
11
43.4080326
21
32.766359
0
LINE
8
0
10
49.9064153
20
50.6205188
11
66.8208825
21
44.4641562
0
LINE
8
0
10
66.8208825
20
44.4641562
11
60.6645199
21
27.549689
0
LINE
8
0
10
60.6645199
20
27.549689
11
43.7500527
21
33.7060516
0
LINE
8
0
10
43.7500527
20
33.7060516
11
49.9064153
21
50.6205188
0
LINE
8
0
10
52.7116888
20
2.7756608
11
69.626156
21
-3.3807018
0
LINE
8
0
10
69.626156
20
-3.3807018
11
63.4697934
21
-20.295169
0
LINE
8
0
10
63.4697934
20
-20.295169
11
46.5553262
21
-14.1388064
0
LINE
8
0
10
46.5553262
20
-14.1388064
11
52.7116888
21
2.7756608
0
LINE
8
0
10
59.2100715
20
20.6298206
11
76.1245387
21
14.473458
0
LINE
8
0
10
76.1245387
20
14.473458
11
69.9681761
21
-2.4410092
0
LINE
8
0
10
69.9681761
20
-2.4410092
11
53.0537089
21
3.7153534
0
LINE
8
0
10
53.0537089
20
3.7153534
11
59.2100715
21
20.6298206
0
LINE
8
0
10
65.7084542
20
38.4839804
11
82.6229214
21
32.3276178
0
LINE
8
0
10
82.6229214
20
32.3276178
11
76.4665588
21
15.4131506
0
LINE
8
0
10
76.4665588
20
15.4131506
11
59.5520916
21
21.5695132
0
LINE
8
0
10
59.5520916
20
21.5695132
11
65.7084542
21
38.4839804
0
LINE
8
0
10
69.8818083
20
-5.6021072
11
86.7962755
21
-11.7584698
0
LINE
8
0
10
86.7962755
20
-11.7584698
11
80.6399129
21
-28.672937
0
LINE
8
0
10
80.6399129
20
-28.672937
11
63.7254457
21
-22.5165744
0
LINE
8
0
10
63.7254457
20
-22.5165744
11
69.8818083
21
-5.6021072
0
LINE
8
0
10
76.380191
20
12.2520526
11
93.2946582
21
6.09569
0
LINE
8
0
10
93.2946582
20
6.09569
11
87.1382956
21
-10.8187772
0
LINE
8
0
10
87.1382956
20
-10.8187772
11
70.2238284
21
-4.6624146
0
LINE
8
0
10
70.2238284
20
-4.6624146
11
76.380191
21
12.2520526
0
LINE
8
0
10
82.8785738
20
30.1062124
11
99.793041
21
23.9498498
0
LINE
8
0
10
99.793041
20
23.9498498
11
93.6366784
21
7.0353826
0
LINE
8
0
10
93.6366784
20
7.0353826
11
76.7222112
21
13.1917452
0
LINE
8
0
10
76.7222112
20
13.1917452
11
82.8785738
21
30.1062124
0
LINE
8
0
10
56.8055772
20
-21.062126
11
73.7200444
21
-27.2184886
0
LINE
8
0
10
73.7200444
20
-27.2184886
11
67.5636818
21
-44.1329558
0
LINE
8
0
10
67.5636818
20
-44.1329558
11
50.6492146
21
-37.9765932
0
LINE
8
0
10
50.6492146
20
-37.9765932
11
56.8055772
21
-21.062126
0
LINE
8
0
10
83.2502442
20
-34.3032631
11
95.2945951
21
-47.67987
0
LINE
8
0
10
95.2945951
20
-47.67987
11
81.9179882
21
-59.7242209
0
LINE
8
0
10
81.9179882
20
-59.7242209
11
69.8736373
21
-46.347614
0
LINE
8
0
10
69.8736373
20
-46.347614
11
83.2502442
21
-34.3032631
0
LINE
8
0
10
101.3443814
20
-57.8984229
11
105.6989755
21
-75.363746
0
LINE
8
0
10
105.6989755
20
-75.363746
11
88.2336524
21
-79.7183401
0
LINE
8
0
10
88.2336524
20
-79.7183401
11
83.8790583
21
-62.253017
0
LINE
8
0
10
83.8790583
20
-62.253017
11
101.3443814
21
-57.8984229
0
LINE
8
0
10
222.5653978
20
6.363961
11
239.9520626
21
11.0227038
0
LINE
8
0
10
239.9520626
20
11.0227038
11
244.6108054
21
-6.363961
0
LINE
8
0
10
244.6108054
20
-6.363961
11
227.2241406
21
-11.0227038
0
LINE
8
0
10
227.2241406
20
-11.0227038
11
222.5653978
21
6.363961
0
LINE
8
0
10
217.6478359
20
24.7165517
11
235.0345007
21
29.3752945
0
LINE
8
0
10
235.0345007
20
29.3752945
11
239.6932435
21
11.9886297
0
LINE
8
0
10
239.6932435
20
11.9886297
11
222.3065787
21
7.3298869
0
LINE
8
0
10
222.3065787
20
7.3298869
11
217.6478359
21
24.7165517
0
LINE
8
0
10
212.730274
20
43.0691425
11
230.1169388
21
47.7278853
0
LINE
8
0
10
230.1169388
20
47.7278853
11
234.7756816
21
30.3412205
0
LINE
8
0
10
234.7756816
20
30.3412205
11
217.3890168
21
25.6824777
0
LINE
8
0
10
217.3890168
20
25.6824777
11
212.730274
21
43.0691425
0
LINE
8
0
10
199.3282451
20
10.5557563
11
216.2427123
21
16.7121189
0
LINE
8
0
10
216.2427123
20
16.7121189
11
222.3990749
21
-0.2023483
0
LINE
8
0
10
222.3990749
20
-0.2023483
11
205.4846077
21
-6.3587109
0
LINE
8
0
10
205.4846077
20
-6.3587109
11
199.3282451
21
10.5557563
0
LINE
8
0
10
192.8298623
20
28.4099161
11
209.7443295
21
34.5662787
0
LINE
8
0
10
209.7443295
20
34.5662787
11
215.9006921
21
17.6518115
0
LINE
8
0
10
215.9006921
20
17.6518115
11
198.9862249
21
11.4954489
0
LINE
8
0
10
198.9862249
20
11.4954489
11
192.8298623
21
28.4099161
0
LINE
8
0
10
186.3314796
20
46.2640758
11
203.2459468
21
52.4204384
0
LINE
8
0
10
203.2459468
20
52.4204384
11
209.4023094
21
35.5059712
0
LINE
8
0
10
209.4023094
20
35.5059712
11
192.4878422
21
29.3496086
0
LINE
8
0
10
192.4878422
20
29.3496086
11
186.3314796
21
46.2640758
0
LINE
8
0
10
179.7639845
20
8.7558366
11
196.6784517
21
14.9121992
0
LINE
8
0
10
196.6784517
20
14.9121992
11
202.8348143
21
-2.002268
0
LINE
8
0
10
202.8348143
20
-2.002268
11
185.9203471
21
-8.1586306
0
LINE
8
0
10
185.9203471
20
-8.1586306
11
179.7639845
21
8.7558366
0
LINE
8
0
10
173.2656018
20
26.6099964
11
190.180069
21
32.766359
0
LINE
8
0
10
190.180069
20
32.766359
11
196.3364316
21
15.8518918
0
LINE
8
0
10
196.3364316
20
15.8518918
11
179.4219644
21
9.6955292
0
LINE
8
0
10
179.4219644
20
9.6955292
11
173.2656018
21
26.6099964
0
LINE
8
0
10
166.7672191
20
44.4641562
11
183.6816863
21
50.6205188
0
LINE
8
0
10
183.6816863
20
50.6205188
11
189.8380489
21
33.7060516
0
LINE
8
0
10
189.8380489
20
33.7060516
11
172.9235817
21
27.549689
0
LINE
8
0
10
172.9235817
20
27.549689
11
166.7672191
21
44.4641562
0
LINE
8
0
10
163.9619456
20
-3.3807018
11
180.8764128
21
2.7756608
0
LINE
8
0
10
180.8764128
20
2.7756608
11
187.0327754
21
-14.1388064
0
LINE
8
0
10
187.0327754
20
-14.1388064
11
170.1183082
21
-20.295169
0
LINE
8
0
10
170.1183082
20
-20.295169
11
163.9619456
21
-3.3807018
0
LINE
8
0
10
157.4635629
20
14.473458
11
174.3780301
21
20.6298206
0
LINE
8
0
10
174.3780301
20
20.6298206
11
180.5343927
21
3.7153534
0
LINE
8
0
10
180.5343927
20
3.7153534
11
163.6199255
21
-2.4410092
0
LINE
8
0
10
163.6199255
20
-2.4410092
11
157.4635629
21
14.473458
0
LINE
8
0
10
150.9651802
20
32.3276178
11
167.8796474
21
38.4839804
0
LINE
8
0
10
167.8796474
20
38.4839804
11
174.03601
21
21.5695132
0
LINE
8
0
10
174.03601
20
21.5695132
11
157.1215428
21
15.4131506
0
LINE
8
0
10
157.1215428
20
15.4131506
11
150.9651802
21
32.3276178
0
LINE
8
0
10
146.7918261
20
-11.7584698
11
163.7062933
21
-5.6021072
0
LINE
8
0
10
163.7062933
20
-5.6021072
11
169.8626559
21
-22.5165744
0
LINE
8
0
10
169.8626559
20
-22.5165744
11
152.9481887
21
-28.672937
0
LINE
8
0
10
152.9481887
20
-28.672937
11
146.7918261
21
-11.7584698
0
LINE
8
0
10
140.2934434
20
6.09569
11
157.2079106
21
12.2520526
0
LINE
8
0
10
157.2079106
20
12.2520526
11
163.3642732
21
-4.6624146
0
LINE
8
0
10
163.3642732
20
-4.6624146
11
146.449806
21
-10.8187772
0
LINE
8
0
10
146.449806
20
-10.8187772
11
140.2934434
21
6.09569
0
LINE
8
0
10
133.7950606
20
23.9498498
11
150.7095278
21
30.1062124
0
LINE
8
0
10
150.7095278
20
30.1062124
11
156.8658904
21
13.1917452
0
LINE
8
0
10
156.8658904
20
13.1917452
11
139.9514232
21
7.0353826
0
LINE
8
0
10
139.9514232
20
7.0353826
11
133.7950606
21
23.9498498
0
LINE
8
0
10
159.8680572
20
-27.2184886
11
176.7825244
21
-21.062126
0
LINE
8
0
10
176.7825244
20
-21.062126
11
182.938887
21
-37.9765932
0
LINE
8
0
10
182.938887
20
-37.9765932
11
166.0244198
21
-44.1329558
0
LINE
8
0
10
166.0244198
20
-44.1329558
11
159.8680572
21
-27.2184886
0
LINE
8
0
10
138.2935065
20
-47.67987
11
150.3378574
21
-34.3032631
0
LINE
8
0
10
150.3378574
20
-34.3032631
11
163.7144643
21
-46.347614
0
LINE
8
0
10
163.7144643
20
-46.347614
11
151.6701134
21
-59.7242209
0
LINE
8
0
10
151.6701134
20
-59.7242209
11
138.2935065
21
-47.67987
0
LINE
8
0
10
127.8891261
20
-75.363746
11
132.2437202
21
-57.8984229
0
LINE
8
0
10
132.2437202
20
-57.8984229
11
149.7090433
21
-62.253017
0
LINE
8
0
10
149.7090433
20
-62.253017
11
145.3544492
21
-79.7183401
0
LINE
8
0
10
145.3544492
20
-79.7183401
11
127.8891261
21
-75.363746
0
ENDSEC
0
EOF